<?xml version="1.0" encoding="UTF-8" standalone="no"?>
<!-- Created with Inkscape (http://www.inkscape.org/) -->

<svg
   width="187.87749mm"
   height="186.94469mm"
   viewBox="0 0 187.87749 186.94469"
   version="1.1"
   id="svg5"
   inkscape:version="1.1 (c68e22c387, 2021-05-23)"
   sodipodi:docname="logo.svg"
   xmlns:inkscape="http://www.inkscape.org/namespaces/inkscape"
   xmlns:sodipodi="http://sodipodi.sourceforge.net/DTD/sodipodi-0.dtd"
   xmlns="http://www.w3.org/2000/svg"
   xmlns:svg="http://www.w3.org/2000/svg">
  <sodipodi:namedview
     id="namedview7"
     pagecolor="#505050"
     bordercolor="#eeeeee"
     borderopacity="1"
     inkscape:pageshadow="0"
     inkscape:pageopacity="0"
     inkscape:pagecheckerboard="0"
     inkscape:document-units="mm"
     showgrid="false"
     inkscape:zoom="0.30110567"
     inkscape:cx="-51.476945"
     inkscape:cy="350.37534"
     inkscape:window-width="1366"
     inkscape:window-height="705"
     inkscape:window-x="-8"
     inkscape:window-y="-8"
     inkscape:window-maximized="1"
     inkscape:current-layer="layer1" />
  <defs
     id="defs2">
    <filter
       id="filter0_d"
       x="-8.3941097"
       y="15.8291"
       width="116.727"
       height="92.245598"
       filterUnits="userSpaceOnUse"
       color-interpolation-filters="sRGB">
      <feFlood
         flood-opacity="0"
         result="BackgroundImageFix"
         id="feFlood1019" />
      <feColorMatrix
         in="SourceAlpha"
         type="matrix"
         values="0 0 0 0 0 0 0 0 0 0 0 0 0 0 0 0 0 0 127 0"
         id="feColorMatrix1021" />
      <feOffset
         id="feOffset1023" />
      <feGaussianBlur
         stdDeviation="4.16667"
         id="feGaussianBlur1025" />
      <feColorMatrix
         type="matrix"
         values="0 0 0 0 0 0 0 0 0 0 0 0 0 0 0 0 0 0 0.25 0"
         id="feColorMatrix1027" />
      <feBlend
         mode="overlay"
         in2="BackgroundImageFix"
         result="effect1_dropShadow"
         id="feBlend1029" />
      <feBlend
         mode="normal"
         in="SourceGraphic"
         in2="effect1_dropShadow"
         result="shape"
         id="feBlend1031" />
    </filter>
    <filter
       id="filter1_d"
       x="60.416698"
       y="-8.0755796"
       width="47.916698"
       height="116.151"
       filterUnits="userSpaceOnUse"
       color-interpolation-filters="sRGB">
      <feFlood
         flood-opacity="0"
         result="BackgroundImageFix"
         id="feFlood1034" />
      <feColorMatrix
         in="SourceAlpha"
         type="matrix"
         values="0 0 0 0 0 0 0 0 0 0 0 0 0 0 0 0 0 0 127 0"
         id="feColorMatrix1036" />
      <feOffset
         id="feOffset1038" />
      <feGaussianBlur
         stdDeviation="4.16667"
         id="feGaussianBlur1040" />
      <feColorMatrix
         type="matrix"
         values="0 0 0 0 0 0 0 0 0 0 0 0 0 0 0 0 0 0 0.25 0"
         id="feColorMatrix1042" />
      <feBlend
         mode="overlay"
         in2="BackgroundImageFix"
         result="effect1_dropShadow"
         id="feBlend1044" />
      <feBlend
         mode="normal"
         in="SourceGraphic"
         in2="effect1_dropShadow"
         result="shape"
         id="feBlend1046" />
    </filter>
    <linearGradient
       id="paint0_linear"
       x1="49.939201"
       y1="0.25781199"
       x2="49.939201"
       y2="99.742302"
       gradientUnits="userSpaceOnUse">
      <stop
         stop-color="white"
         id="stop1049" />
      <stop
         offset="1"
         stop-color="white"
         stop-opacity="0"
         id="stop1051" />
    </linearGradient>
  </defs>
  <g
     inkscape:label="レイヤー 1"
     inkscape:groupmode="layer"
     id="layer1"
     transform="translate(0.72306061,-32.204134)">
    <path
       id="circle5756"
       style="opacity:1;fill:#b94848;stroke-width:0.721844;stroke-linecap:square;stroke-linejoin:round;stroke-opacity:0.301961"
       d="M 187.10034,125.67648 A 93.911698,93.472345 0 0 1 93.188637,219.14882 93.911698,93.472345 0 0 1 -0.72306061,125.67648 93.911698,93.472345 0 0 1 93.188637,32.204134 93.911698,93.472345 0 0 1 187.10034,125.67648 Z" />
    <path
       id="path5638"
       style="opacity:1;fill:#a94141;fill-opacity:1;stroke:none;stroke-width:0.719354;stroke-linecap:square;stroke-linejoin:round;stroke-opacity:0.301961"
       d="m 140.94021,73.803027 c 0.21886,0.442131 0.39856,0.904199 0.51573,1.384786 0.12435,0.510034 0.18862,1.036501 0.18862,1.569973 V 91.969857 147.7466 c 0,0.58365 -0.0362,1.16055 -0.10697,1.72893 -0.0707,0.56836 -0.17572,1.12824 -0.31368,1.67851 -0.13796,0.55027 -0.30884,1.09105 -0.51056,1.62038 -0.20172,0.52934 -0.43407,1.04742 -0.69608,1.553 -0.26202,0.50557 -0.55347,0.99839 -0.8723,1.47738 -0.31883,0.47899 -0.66498,0.94395 -1.03715,1.39353 -0.37216,0.44958 -0.77014,0.88411 -1.19217,1.30145 -0.42204,0.41735 -0.86845,0.81784 -1.33687,1.20012 -0.46842,0.38227 -0.95886,0.74615 -1.47019,1.09054 -0.51134,0.34439 -1.04345,0.66908 -1.59422,0.97275 -0.55078,0.30367 -1.12065,0.58607 -1.70739,0.84619 -0.58674,0.26013 -1.19048,0.4982 -1.80971,0.71195 -0.61923,0.21375 -1.25397,0.40334 -1.90221,0.5679 -0.64824,0.16456 -1.31008,0.30363 -1.98386,0.41616 -0.67378,0.11253 -1.35933,0.19849 -2.05517,0.25617 -0.69584,0.0577 -1.40172,0.0875 -2.11615,0.0875 -0.71443,0 -1.42031,-0.0298 -2.11615,-0.0875 -0.69584,-0.0576 -1.38191,-0.14364 -2.05569,-0.25617 -0.67378,-0.11253 -1.33561,-0.2516 -1.98386,-0.41616 -0.64824,-0.16456 -1.28246,-0.35415 -1.90169,-0.5679 -0.61923,-0.21375 -1.22349,-0.45182 -1.81023,-0.71195 -0.58674,-0.26012 -1.15609,-0.54252 -1.70687,-0.84619 -0.55077,-0.30367 -1.08288,-0.62836 -1.59421,-0.97275 -0.51134,-0.34439 -1.00178,-0.70827 -1.4702,-1.09054 -0.46842,-0.38228 -0.91484,-0.78277 -1.33687,-1.20012 -0.42203,-0.41734 -0.82,-0.85187 -1.19218,-1.30145 -0.37216,-0.44958 -0.71831,-0.91454 -1.03714,-1.39353 -0.31883,-0.47899 -0.61028,-0.97181 -0.8723,-1.47738 -0.26201,-0.50558 -0.49487,-1.02366 -0.6966,-1.553 -0.20172,-0.52933 -0.37209,-1.07011 -0.51004,-1.62038 -0.13796,-0.55027 -0.24348,-1.11015 -0.3142,-1.67851 -0.0707,-0.56838 -0.10697,-1.14528 -0.10697,-1.72893 0,-0.58365 0.0363,-1.16004 0.10697,-1.72842 0.0707,-0.56836 0.17624,-1.12876 0.3142,-1.67903 0.13795,-0.55025 0.30832,-1.09052 0.51004,-1.61987 0.20173,-0.52933 0.43459,-1.04741 0.6966,-1.55299 0.26202,-0.50558 0.55347,-0.9989 0.8723,-1.47789 0.31883,-0.479 0.66498,-0.94396 1.03714,-1.39354 0.37218,-0.44957 0.77015,-0.88359 1.19218,-1.30093 0.42203,-0.41735 0.86845,-0.81783 1.33687,-1.20011 0.46842,-0.38228 0.95886,-0.74616 1.4702,-1.09055 0.51133,-0.34439 1.04344,-0.66907 1.59421,-0.97274 0.55078,-0.30368 1.12013,-0.58659 1.70687,-0.84672 0.58674,-0.26013 1.191,-0.49767 1.81023,-0.71142 0.61923,-0.21375 1.25345,-0.40335 1.90169,-0.56791 0.64825,-0.16456 1.31008,-0.30414 1.98386,-0.41667 0.67378,-0.11254 1.35985,-0.1985 2.05569,-0.25618 0.69584,-0.0576 1.40172,-0.0869 2.11615,-0.0869 1.20779,0 2.39372,0.0847 3.54759,0.24845 1.15387,0.16374 2.27541,0.40635 3.3538,0.72327 v -30.76164 l -55.21315,16.22598 v 43.98754 c 0,0.58364 -0.03625,1.16055 -0.106971,1.72892 -0.07072,0.56837 -0.175718,1.12825 -0.313674,1.67852 -0.137959,0.55026 -0.308841,1.09104 -0.510564,1.62037 -0.201724,0.52934 -0.434586,1.04743 -0.696598,1.55301 -0.262014,0.50558 -0.552953,0.99839 -0.871783,1.47737 -0.318829,0.479 -0.665494,0.94396 -1.037662,1.39354 -0.372168,0.44958 -0.770141,0.88411 -1.192175,1.30145 -0.422035,0.41735 -0.867929,0.81783 -1.336352,1.20011 -0.468424,0.38228 -0.959373,0.74616 -1.470712,1.09055 -0.511337,0.34439 -1.042924,0.66907 -1.5937,0.97274 -0.550777,0.30367 -1.12065,0.58608 -1.70739,0.8462 -0.58674,0.26013 -1.19048,0.49819 -1.809708,0.71194 -0.619228,0.21376 -1.253969,0.40335 -1.902208,0.56791 -0.648242,0.16456 -1.310079,0.30363 -1.983858,0.41615 -0.67378,0.11254 -1.359329,0.19851 -2.055173,0.25618 -0.695841,0.0576 -1.40172,0.0875 -2.11615,0.0875 -0.714428,0 -1.420823,-0.0298 -2.116667,-0.0875 -0.69584,-0.0576 -1.381391,-0.14364 -2.055169,-0.25618 -0.67378,-0.11252 -1.335616,-0.25159 -1.983859,-0.41615 -0.22222,-0.0564 -0.433212,-0.13214 -0.652158,-0.19445 l 70.794101,39.35838 a 93.582171,93.155459 0 0 0 71.24474,-90.41594 93.582171,93.155459 0 0 0 -4.75992,-29.308904 z" />
    <path
       d="m 138.51156,71.674972 c 1.69139,1.25287 2.69368,3.25747 2.69368,5.36647 v 15.03446 55.126368 c 0,9.22949 -8.97892,16.70496 -20.04596,16.70496 -11.06703,0 -20.04594,-7.47547 -20.04594,-16.70496 0,-9.22948 8.97891,-16.70496 20.04594,-16.70496 2.3387,0 4.59387,0.33411 6.68199,0.96054 v -30.40304 l -53.45583,16.03677 v 43.47466 c 0,9.22949 -8.97891,16.70496 -20.04595,16.70496 -11.06704,0 -20.04595,-7.47547 -20.04595,-16.70496 0,-9.22949 8.97891,-16.70496 20.04595,-16.70496 2.33869,0 4.59386,0.3341 6.68198,0.96054 V 112.12186 97.087392 c 0,-2.94425 1.94195,-5.5544 4.76092,-6.41053 l 66.81979,-20.04595 c 2.02548,-0.60556 4.21801,-0.2297 5.90938,1.04406 z"
       id="path7231"
       style="fill:#ffffff;fill-opacity:1;stroke-width:0.208812" />
  </g>
</svg>
